<svg width="36" height="25" viewBox="0 0 36 25" fill="none" xmlns="http://www.w3.org/2000/svg">
<path fill-rule="evenodd" clip-rule="evenodd" d="M17.0024 16.2079V13.1006H18.6061C19.2633 13.1006 19.818 12.8804 20.2701 12.4461L20.3787 12.336C21.2046 11.4369 21.1504 10.0361 20.2701 9.20427C19.83 8.76387 19.2271 8.52532 18.6061 8.53756H16.0317V16.2079H17.0024ZM17.0025 12.1586V9.47954H18.6306C18.9804 9.47954 19.312 9.6141 19.5592 9.85877C20.0839 10.3726 20.0959 11.2289 19.5894 11.7611C19.3422 12.0241 18.9924 12.1709 18.6306 12.1586H17.0025ZM24.9065 11.3696C24.4905 10.9842 23.9238 10.7885 23.2063 10.7885C22.2839 10.7885 21.5905 11.131 21.1323 11.81L21.9885 12.3544C22.302 11.8895 22.73 11.6571 23.2726 11.6571C23.6163 11.6571 23.9479 11.7855 24.2071 12.018C24.4604 12.2382 24.6051 12.5562 24.6051 12.8926V13.119C24.2313 12.911 23.761 12.8009 23.1822 12.8009C22.507 12.8009 21.9643 12.9599 21.5604 13.2841C21.1565 13.6083 20.9515 14.0365 20.9515 14.5808C20.9394 15.0763 21.1504 15.5473 21.5242 15.8653C21.9041 16.2079 22.3864 16.3791 22.9531 16.3791C23.6223 16.3791 24.1529 16.0794 24.5568 15.48H24.599V16.2079H25.5275V12.9722C25.5275 12.2932 25.3225 11.7549 24.9065 11.3696ZM22.272 15.2414C22.073 15.0946 21.9524 14.8561 21.9524 14.5992C21.9524 14.3117 22.0851 14.0731 22.3444 13.8835C22.6097 13.6939 22.9413 13.596 23.3333 13.596C23.876 13.5899 24.2981 13.7122 24.5996 13.9569C24.5996 14.3728 24.4368 14.7337 24.1172 15.0396C23.8277 15.3332 23.4358 15.4983 23.0257 15.4983C22.7544 15.5044 22.4891 15.4127 22.272 15.2414ZM27.6135 18.5139L30.8572 10.9598H29.8021L28.3009 14.7276H28.2828L26.7454 10.9598H25.6903L27.8185 15.8715L26.6127 18.5139H27.6135Z" fill="#3C4043"/>
<path d="M13.6514 12.4282C13.6514 12.1285 13.6273 11.8288 13.5791 11.5352H9.48535V13.2295H11.8306C11.7342 13.7739 11.4207 14.2632 10.9625 14.569V15.67H12.3612C13.1811 14.9054 13.6514 13.7739 13.6514 12.4282Z" fill="#5A96F5"/>
<path d="M9.48555 16.7337C10.6552 16.7337 11.6439 16.3423 12.3614 15.6694L10.9627 14.5684C10.5708 14.8376 10.0704 14.9905 9.48555 14.9905C8.3521 14.9905 7.39348 14.2137 7.04983 13.1738H5.60889V14.3115C6.34443 15.7979 7.84566 16.7337 9.48555 16.7337Z" fill="#3ABB5D"/>
<path d="M7.05005 13.1743C6.86915 12.6299 6.86915 12.0366 7.05005 11.4861V10.3545H5.60888C4.98779 11.5962 4.98779 13.0642 5.60888 14.3059L7.05005 13.1743Z" fill="#FBC41D"/>
<path d="M9.48555 9.6693C10.1065 9.65706 10.7034 9.89562 11.1496 10.3299L12.3915 9.06986C11.6017 8.32363 10.5648 7.91381 9.48555 7.92605C7.84566 7.92605 6.34443 8.86801 5.60889 10.3544L7.04983 11.4921C7.39348 10.4461 8.3521 9.6693 9.48555 9.6693Z" fill="#EC594C"/>
</svg>
