<svg width="26" height="26" viewBox="0 0 26 26" fill="none" xmlns="http://www.w3.org/2000/svg">
<path d="M9.29272 5.45359L6.11397 8.62484C5.53022 9.20734 4.99397 9.74109 4.57022 10.2248C4.28385 10.5441 4.02501 10.887 3.79647 11.2498L3.76647 11.2186L3.64772 11.1011C3.09476 10.5651 2.44487 10.1392 1.73272 9.84609L1.57897 9.78359L1.10522 9.59609C0.957683 9.53793 0.826954 9.44393 0.724833 9.3226C0.622713 9.20127 0.552416 9.05641 0.520289 8.90111C0.488162 8.74581 0.495217 8.58495 0.540815 8.43306C0.586414 8.28117 0.66912 8.14302 0.78147 8.03109C2.18147 6.63359 3.86272 4.95734 4.67522 4.62109C5.38057 4.32511 6.15304 4.22618 6.91022 4.33484C7.59272 4.43609 8.23772 4.78734 9.29272 5.45359ZM14.7215 22.1411C14.9777 22.4011 15.1465 22.5848 15.3015 22.7811C15.504 23.0398 15.6852 23.3148 15.844 23.6036C16.0215 23.9286 16.1602 24.2748 16.4365 24.9686C16.4909 25.0996 16.5768 25.2151 16.6865 25.305C16.7962 25.395 16.9264 25.4565 17.0655 25.4841C17.2046 25.5118 17.3484 25.5048 17.4842 25.4637C17.62 25.4226 17.7435 25.3488 17.844 25.2486L17.949 25.1448C19.349 23.7486 21.0302 22.0723 21.3677 21.2636C21.6642 20.561 21.7632 19.7908 21.654 19.0361C21.5527 18.3548 21.2015 17.7111 20.5327 16.6586L17.3427 19.8386C16.7452 20.4348 16.1977 20.9811 15.7015 21.4086C15.4052 21.6661 15.0802 21.9211 14.7215 22.1411Z" fill="black"/>
<path fill-rule="evenodd" clip-rule="evenodd" d="M16.0591 18.4713L23.3679 11.1838C24.4204 10.135 24.9466 9.61 25.2229 8.94375C25.5004 8.275 25.5004 7.53375 25.5004 6.05V5.34125C25.5004 3.05875 25.5004 1.9175 24.7891 1.20875C24.0779 0.5 22.9341 0.5 20.6453 0.5H19.9328C18.4454 0.5 17.7016 0.5 17.0329 0.77625C16.3629 1.0525 15.8366 1.5775 14.7829 2.62625L7.47535 9.91375C6.24535 11.1388 5.48285 11.9 5.18785 12.6337C5.09586 12.8566 5.04831 13.0952 5.04785 13.3363C5.04785 14.3387 5.8566 15.1463 7.47535 16.76L7.69285 16.9762L10.2404 14.39C10.3268 14.3023 10.4296 14.2324 10.5431 14.1844C10.6565 14.1364 10.7783 14.1113 10.9014 14.1103C11.0246 14.1094 11.1467 14.1327 11.2608 14.179C11.375 14.2253 11.4789 14.2936 11.5666 14.38C11.6543 14.4664 11.7242 14.5693 11.7722 14.6827C11.8202 14.7961 11.8453 14.9179 11.8463 15.0411C11.8472 15.1642 11.8239 15.2863 11.7776 15.4005C11.7313 15.5146 11.663 15.6185 11.5766 15.7063L9.02035 18.3L9.1916 18.4713C10.8104 20.0838 11.6204 20.8913 12.6254 20.8913C12.8479 20.8913 13.0604 20.8525 13.2741 20.7738C14.0279 20.4963 14.7979 19.7288 16.0591 18.4713ZM19.4929 9.91375C19.0369 10.368 18.4196 10.6231 17.776 10.6231C17.1324 10.6231 16.515 10.368 16.0591 9.91375C15.8338 9.68937 15.655 9.42269 15.533 9.12903C15.411 8.83536 15.3482 8.5205 15.3482 8.2025C15.3482 7.8845 15.411 7.56964 15.533 7.27597C15.655 6.98231 15.8338 6.71563 16.0591 6.49125C16.515 6.037 17.1324 5.78194 17.776 5.78194C18.4196 5.78194 19.0369 6.037 19.4929 6.49125C19.7182 6.71563 19.897 6.98231 20.019 7.27597C20.141 7.56964 20.2038 7.8845 20.2038 8.2025C20.2038 8.5205 20.141 8.83536 20.019 9.12903C19.897 9.42269 19.7182 9.68937 19.4929 9.91375Z" fill="black"/>
</svg>
