<svg width="45" height="36" viewBox="0 0 45 36" fill="none" xmlns="http://www.w3.org/2000/svg">
<path d="M16.4624 3.36621H28.2048V24.7534H16.4624V3.36621Z" fill="#FF6E1A"/>
<path d="M8.52243 35.5184V33.2513C8.52243 32.3821 8.00043 31.8154 7.1057 31.8154C6.65842 31.8154 6.17379 31.9665 5.83824 32.4578C5.57741 32.0421 5.20468 31.8154 4.6455 31.8154C4.27259 31.8154 3.90003 31.9287 3.60167 32.3444V31.891H2.81885V35.5184H3.60167V33.5157C3.60167 32.8735 3.93722 32.5711 4.45921 32.5711C4.98087 32.5711 5.24204 32.9112 5.24204 33.5157V35.5184H6.02486V33.5157C6.02486 32.8735 6.39743 32.5711 6.88206 32.5711C7.40406 32.5711 7.66489 32.9112 7.66489 33.5157V35.5184H8.52243ZM20.1155 31.891H18.8482V30.7952H18.0654V31.891H17.3571V32.6088H18.0652V34.2715C18.0652 35.1029 18.4008 35.594 19.2955 35.594C19.6311 35.594 20.0036 35.4807 20.2648 35.3296L20.041 34.6494C19.8173 34.8005 19.5565 34.8383 19.3701 34.8383C18.9973 34.8383 18.8482 34.6117 18.8482 34.2337V32.6088H20.1155V31.891ZM26.751 31.8152C26.3038 31.8152 26.0056 32.0421 25.8191 32.3444V31.891H25.0363V35.5184H25.8191V33.478C25.8191 32.8735 26.0799 32.5334 26.5646 32.5334C26.7137 32.5334 26.9001 32.5712 27.0492 32.6089L27.2729 31.8533C27.1238 31.8154 26.9001 31.8154 26.751 31.8154V31.8152ZM16.7234 32.1932C16.3505 31.9287 15.8287 31.8154 15.2695 31.8154C14.3749 31.8154 13.7786 32.2688 13.7786 32.9868C13.7786 33.5914 14.2258 33.9314 15.0087 34.0448L15.3814 34.0827C15.7915 34.1581 16.0151 34.2715 16.0151 34.4605C16.0151 34.7249 15.7169 34.9139 15.1949 34.9139C14.6731 34.9139 14.263 34.7249 14.002 34.5361L13.6293 35.1406C14.0394 35.4429 14.5986 35.594 15.1576 35.594C16.2014 35.594 16.798 35.1029 16.798 34.4227C16.798 33.7803 16.3133 33.4401 15.5677 33.3269L15.1949 33.289C14.8594 33.2511 14.5986 33.1758 14.5986 32.9491C14.5986 32.6845 14.8594 32.5334 15.2695 32.5334C15.7169 32.5334 16.1642 32.7222 16.3879 32.8356L16.7234 32.1932ZM37.5243 31.8154C37.0769 31.8154 36.7787 32.0421 36.5922 32.3444V31.891H35.8094V35.5184H36.5922V33.478C36.5922 32.8735 36.8532 32.5334 37.3377 32.5334C37.4869 32.5334 37.6734 32.5712 37.8225 32.6089L38.0461 31.8533C37.897 31.8154 37.6734 31.8154 37.5243 31.8154ZM27.5339 33.7047C27.5339 34.8005 28.2793 35.594 29.4351 35.594C29.9569 35.594 30.3296 35.4807 30.7024 35.1785L30.3296 34.5361C30.0314 34.7628 29.7332 34.876 29.3977 34.876C28.764 34.876 28.3167 34.4227 28.3167 33.7047C28.3167 33.0246 28.764 32.5711 29.3977 32.5334C29.7332 32.5334 30.0314 32.6466 30.3296 32.8735L30.7024 32.2311C30.3296 31.9287 29.9569 31.8154 29.4351 31.8154C28.2793 31.8154 27.5339 32.6089 27.5339 33.7047ZM34.7657 33.7047V31.891H33.9829V32.3444C33.7219 32.0044 33.3492 31.8154 32.8645 31.8154C31.8581 31.8154 31.0753 32.6089 31.0753 33.7047C31.0753 34.8005 31.8581 35.594 32.8645 35.594C33.3864 35.594 33.7593 35.4052 33.9829 35.065V35.5184H34.7657V33.7047ZM31.8953 33.7047C31.8953 33.0623 32.3054 32.5334 32.9763 32.5334C33.61 32.5334 34.0575 33.0246 34.0575 33.7047C34.0575 34.3471 33.61 34.876 32.9763 34.876C32.3054 34.8382 31.8953 34.3471 31.8953 33.7047ZM22.5387 31.8154C21.4949 31.8154 20.7493 32.5711 20.7493 33.7047C20.7493 34.8383 21.4947 35.594 22.5759 35.594C23.0977 35.594 23.6197 35.4429 24.0298 35.1029L23.6569 34.5361C23.3587 34.7628 22.986 34.9139 22.6133 34.9139C22.1286 34.9139 21.644 34.6872 21.5321 34.0447H24.1789V33.7426C24.2163 32.5711 23.5452 31.8154 22.5386 31.8154H22.5387ZM22.5387 32.4955C23.0232 32.4955 23.3589 32.7979 23.4333 33.3647H21.5695C21.644 32.8735 21.9795 32.4955 22.5387 32.4955ZM41.9603 33.7047V30.4551H41.1774V32.3444C40.9164 32.0044 40.5437 31.8154 40.0591 31.8154C39.0526 31.8154 38.2698 32.6089 38.2698 33.7047C38.2698 34.8005 39.0526 35.594 40.0591 35.594C40.5811 35.594 40.9538 35.4052 41.1774 35.065V35.5184H41.9603V33.7047ZM39.09 33.7047C39.09 33.0623 39.4999 32.5334 40.171 32.5334C40.8047 32.5334 41.252 33.0246 41.252 33.7047C41.252 34.3471 40.8047 34.876 40.171 34.876C39.4999 34.8382 39.09 34.3471 39.09 33.7047ZM12.921 33.7047V31.891H12.1382V32.3444C11.8772 32.0044 11.5045 31.8154 11.0198 31.8154C10.0134 31.8154 9.23054 32.6089 9.23054 33.7047C9.23054 34.8005 10.0134 35.594 11.0198 35.594C11.5418 35.594 11.9146 35.4052 12.1382 35.065V35.5184H12.921V33.7047ZM10.0134 33.7047C10.0134 33.0623 10.4235 32.5334 11.0944 32.5334C11.7281 32.5334 12.1756 33.0246 12.1756 33.7047C12.1756 34.3471 11.7281 34.876 11.0944 34.876C10.4235 34.8382 10.0134 34.3471 10.0134 33.7047Z" fill="white"/>
<path d="M17.2077 14.0598C17.2077 9.71435 19.2206 5.86003 22.3146 3.36604C20.0408 1.55232 17.1705 0.456543 14.0392 0.456543C6.62074 0.456543 0.619141 6.54011 0.619141 14.0598C0.619141 21.5792 6.62074 27.663 14.0391 27.663C17.1704 27.663 20.0406 26.5672 22.3146 24.7533C19.2206 22.2972 17.2077 18.4052 17.2077 14.0598Z" fill="#FF0623"/>
<path d="M44.047 14.0598C44.047 21.5792 38.0454 27.663 30.6271 27.663C27.4958 27.663 24.6255 26.5672 22.3516 24.7533C25.4829 22.2595 27.4586 18.4052 27.4586 14.0598C27.4586 9.71435 25.4455 5.86003 22.3516 3.36604C24.6253 1.55232 27.4958 0.456543 30.6271 0.456543C38.0454 0.456543 44.0472 6.57798 44.0472 14.0598H44.047Z" fill="#F8A934"/>
</svg>
