<svg width="30" height="30" viewBox="0 0 30 30" fill="none" xmlns="http://www.w3.org/2000/svg">
<path d="M23.75 22.5H11.25C10.587 22.5 9.95107 22.2366 9.48223 21.7678C9.01339 21.2989 8.75 20.663 8.75 20V5C8.75 4.33696 9.01339 3.70107 9.48223 3.23223C9.95107 2.76339 10.587 2.5 11.25 2.5H12.5V8.75L15 6.875L17.5 8.75V2.5H23.75C24.413 2.5 25.0489 2.76339 25.5178 3.23223C25.9866 3.70107 26.25 4.33696 26.25 5V20C26.25 20.663 25.9866 21.2989 25.5178 21.7678C25.0489 22.2366 24.413 22.5 23.75 22.5ZM21.25 25V27.5H6.25C5.58696 27.5 4.95107 27.2366 4.48223 26.7678C4.01339 26.2989 3.75 25.663 3.75 25V7.5H6.25V25H21.25Z" fill="black"/>
</svg>
