<svg width="36" height="25" viewBox="0 0 36 25" fill="none" xmlns="http://www.w3.org/2000/svg">
<path fill-rule="evenodd" clip-rule="evenodd" d="M10.1829 15.6768H8.58287C8.47338 15.6768 8.38026 15.7563 8.36318 15.8644L7.71603 19.9674C7.70317 20.0484 7.76587 20.1214 7.848 20.1214H8.61188C8.72137 20.1214 8.8145 20.0418 8.83157 19.9335L9.00612 18.8269C9.02295 18.7185 9.1163 18.6391 9.22557 18.6391H9.73209C10.7861 18.6391 11.3944 18.129 11.5533 17.1183C11.6249 16.6761 11.5563 16.3287 11.3492 16.0853C11.1219 15.8182 10.7184 15.6768 10.1829 15.6768ZM10.3675 17.1753C10.2801 17.7495 9.84136 17.7495 9.41719 17.7495H9.17573L9.34512 16.6772C9.35518 16.6124 9.41133 16.5647 9.47684 16.5647H9.58751C9.87645 16.5647 10.149 16.5647 10.2899 16.7294C10.3738 16.8277 10.3996 16.9736 10.3675 17.1753ZM14.9659 17.1569H14.1997C14.1344 17.1569 14.078 17.2047 14.0679 17.2695L14.034 17.4838L13.9804 17.4062C13.8146 17.1654 13.4447 17.0849 13.0755 17.0849C12.2287 17.0849 11.5056 17.7262 11.3647 18.6258C11.2915 19.0745 11.3956 19.5036 11.6501 19.8029C11.8837 20.078 12.2178 20.1926 12.6152 20.1926C13.2975 20.1926 13.6759 19.7539 13.6759 19.7539L13.6416 19.9669C13.6288 20.0483 13.6915 20.1213 13.7731 20.1213H14.4633C14.5731 20.1213 14.6657 20.0417 14.683 19.9334L15.0971 17.3109C15.1102 17.2302 15.0478 17.1569 14.9659 17.1569ZM13.8978 18.6483C13.8239 19.086 13.4764 19.3798 13.0334 19.3798C12.8109 19.3798 12.633 19.3085 12.5189 19.1733C12.4056 19.039 12.3625 18.8478 12.3986 18.6349C12.4677 18.2009 12.821 17.8975 13.2573 17.8975C13.4748 17.8975 13.6517 17.9697 13.7682 18.1061C13.8849 18.244 13.9313 18.4363 13.8978 18.6483ZM18.2767 17.1568H19.0468C19.1546 17.1568 19.2175 17.2778 19.1562 17.3662L16.5953 21.0628C16.5538 21.1227 16.4855 21.1583 16.4125 21.1583H15.6435C15.5352 21.1583 15.472 21.0364 15.5347 20.9477L16.3321 19.8221L15.484 17.3332C15.4546 17.2467 15.5185 17.1568 15.6106 17.1568H16.3672C16.4655 17.1568 16.5522 17.2214 16.5806 17.3154L17.0306 18.8187L18.0927 17.2544C18.1342 17.1933 18.2033 17.1568 18.2767 17.1568Z" fill="#2B4594"/>
<path fill-rule="evenodd" clip-rule="evenodd" d="M26.6252 19.9667L27.2818 15.7886C27.2919 15.7237 27.3481 15.676 27.4134 15.6758H28.1526C28.2343 15.6758 28.297 15.749 28.2841 15.83L27.6365 19.9328C27.6196 20.041 27.5265 20.1206 27.4168 20.1206H26.7566C26.675 20.1206 26.6123 20.0477 26.6252 19.9667ZM21.5961 15.676H19.9957C19.8865 15.676 19.7934 15.7556 19.7763 15.8636L19.1291 19.9667C19.1162 20.0477 19.1789 20.1206 19.2607 20.1206H20.0818C20.1581 20.1206 20.2234 20.065 20.2353 19.9892L20.419 18.8261C20.4358 18.7178 20.5292 18.6383 20.6384 18.6383H21.1447C22.1989 18.6383 22.8071 18.1282 22.9661 17.1175C23.0379 16.6753 22.969 16.3279 22.7619 16.0845C22.5347 15.8174 22.1316 15.676 21.5961 15.676ZM21.7807 17.1746C21.6934 17.7487 21.2547 17.7487 20.8303 17.7487H20.589L20.7587 16.6764C20.7688 16.6117 20.8244 16.5639 20.8902 16.5639H21.0008C21.2896 16.5639 21.5624 16.5639 21.7032 16.7286C21.7872 16.8269 21.8127 16.9729 21.7807 17.1746ZM26.3786 17.1562H25.6129C25.5471 17.1562 25.4912 17.2039 25.4814 17.2688L25.4475 17.483L25.3937 17.4054C25.2278 17.1646 24.8582 17.0842 24.489 17.0842C23.6422 17.0842 22.9193 17.7255 22.7784 18.6251C22.7054 19.0738 22.809 19.5028 23.0636 19.8021C23.2976 20.0772 23.6312 20.1919 24.0287 20.1919C24.7109 20.1919 25.0892 19.7532 25.0892 19.7532L25.0551 19.9661C25.0422 20.0475 25.1049 20.1205 25.1871 20.1205H25.877C25.9862 20.1205 26.0794 20.0409 26.0965 19.9327L26.5108 17.3101C26.5235 17.2295 26.4608 17.1562 26.3786 17.1562ZM25.3106 18.6475C25.2371 19.0852 24.8892 19.3791 24.4461 19.3791C24.224 19.3791 24.0458 19.3077 23.9316 19.1725C23.8183 19.0382 23.7758 18.847 23.8114 18.6342C23.8808 18.2001 24.2337 17.8967 24.67 17.8967C24.8876 17.8967 25.0644 17.969 25.181 18.1054C25.2982 18.2432 25.3445 18.4355 25.3106 18.6475Z" fill="#20A8E7"/>
<path d="M16.1043 14.2083L16.301 12.9588L15.8628 12.9487H13.7705L15.2246 3.72873C15.229 3.70089 15.2438 3.67494 15.2652 3.65651C15.2866 3.63809 15.3141 3.62793 15.3427 3.62793H18.8707C20.042 3.62793 20.8502 3.87166 21.2723 4.35272C21.4701 4.5784 21.5961 4.81422 21.6571 5.07375C21.721 5.34607 21.7221 5.67141 21.6597 6.06823L21.6551 6.09719V6.35144L21.853 6.46354C22.0197 6.55192 22.152 6.6531 22.2535 6.76895C22.4229 6.96189 22.5323 7.20713 22.5786 7.49787C22.6263 7.79689 22.6105 8.1527 22.5323 8.55553C22.442 9.01892 22.2961 9.4225 22.099 9.75274C21.9177 10.057 21.6867 10.3094 21.4126 10.505C21.1508 10.6908 20.8397 10.8319 20.4881 10.9222C20.1472 11.0108 19.7588 11.0557 19.3326 11.0557H19.058C18.8617 11.0557 18.671 11.1264 18.5213 11.2531C18.3713 11.3825 18.2719 11.5592 18.2414 11.7526L18.2208 11.8651L17.8732 14.0672L17.8574 14.1481C17.8533 14.1738 17.8462 14.1865 17.8356 14.1952C17.8262 14.203 17.8127 14.2083 17.7995 14.2083H16.1043Z" fill="#2B4594"/>
<path d="M22.0406 6.12695C22.0301 6.19428 22.018 6.2631 22.0045 6.33382C21.5392 8.72259 19.9475 9.54781 17.9145 9.54781H16.8794C16.6308 9.54781 16.4213 9.72834 16.3825 9.97357L15.8525 13.3347L15.7025 14.2873C15.6773 14.4483 15.8014 14.5935 15.9639 14.5935H17.7998C18.0172 14.5935 18.2018 14.4356 18.236 14.2212L18.2541 14.1278L18.5998 11.9343L18.622 11.814C18.6558 11.5989 18.8408 11.4409 19.0582 11.4409H19.3328C21.1115 11.4409 22.504 10.7187 22.9109 8.62893C23.0809 7.75594 22.9929 7.02702 22.543 6.51436C22.4069 6.35977 22.238 6.23151 22.0406 6.12695Z" fill="#20A8E7"/>
<path d="M21.5537 5.93262C21.4826 5.91193 21.4092 5.89312 21.334 5.8762C21.2584 5.85966 21.1809 5.84499 21.1012 5.8322C20.8221 5.78706 20.5163 5.76562 20.1887 5.76562H17.4235C17.3554 5.76562 17.2907 5.78104 17.2328 5.80888C17.1052 5.87018 17.0105 5.99093 16.9876 6.13874L16.3992 9.86463L16.3823 9.97333C16.4211 9.72809 16.6306 9.54755 16.8792 9.54755H17.9142C19.9473 9.54755 21.5391 8.72196 22.0043 6.33357C22.0182 6.26286 22.0298 6.19403 22.0403 6.12671C21.9227 6.06427 21.7951 6.01086 21.6578 5.96534C21.624 5.95406 21.5891 5.94316 21.5537 5.93262Z" fill="#283678"/>
<path d="M16.9876 6.13895C17.0105 5.99112 17.1054 5.87039 17.2328 5.80946C17.2912 5.78162 17.3555 5.7662 17.4235 5.7662H20.1888C20.5165 5.7662 20.8222 5.78764 21.1012 5.83278C21.181 5.84556 21.2586 5.86024 21.3341 5.87678C21.4094 5.89371 21.4827 5.91252 21.5538 5.9332C21.5891 5.94373 21.6241 5.95464 21.6583 5.96555C21.7956 6.01106 21.9231 6.06485 22.0408 6.12691C22.1793 5.24414 22.0397 4.6431 21.5625 4.09884C21.0363 3.49968 20.0865 3.24316 18.8713 3.24316H15.3432C15.0949 3.24316 14.8832 3.4237 14.8448 3.66931L13.3754 12.984C13.3463 13.1683 13.4885 13.3346 13.6743 13.3346H15.8525L16.3994 9.86483L16.9876 6.13895Z" fill="#2B4594"/>
</svg>
