<svg width="30" height="30" viewBox="0 0 30 30" fill="none" xmlns="http://www.w3.org/2000/svg">
<path d="M11.2927 7.45359L8.11397 10.6248C7.53022 11.2073 6.99397 11.7411 6.57022 12.2248C6.28385 12.5441 6.02501 12.887 5.79647 13.2498L5.76647 13.2186L5.64772 13.1011C5.09476 12.5651 4.44487 12.1392 3.73272 11.8461L3.57897 11.7836L3.10522 11.5961C2.95768 11.5379 2.82695 11.4439 2.72483 11.3226C2.62271 11.2013 2.55242 11.0564 2.52029 10.9011C2.48816 10.7458 2.49522 10.585 2.54082 10.4331C2.58641 10.2812 2.66912 10.143 2.78147 10.0311C4.18147 8.63359 5.86272 6.95734 6.67522 6.62109C7.38057 6.32511 8.15304 6.22618 8.91022 6.33484C9.59272 6.43609 10.2377 6.78734 11.2927 7.45359ZM16.7215 24.1411C16.9777 24.4011 17.1465 24.5848 17.3015 24.7811C17.504 25.0398 17.6852 25.3148 17.844 25.6036C18.0215 25.9286 18.1602 26.2748 18.4365 26.9686C18.4909 27.0996 18.5768 27.2151 18.6865 27.305C18.7962 27.395 18.9264 27.4565 19.0655 27.4841C19.2046 27.5118 19.3484 27.5048 19.4842 27.4637C19.62 27.4226 19.7435 27.3488 19.844 27.2486L19.949 27.1448C21.349 25.7486 23.0302 24.0723 23.3677 23.2636C23.6642 22.561 23.7632 21.7908 23.654 21.0361C23.5527 20.3548 23.2015 19.7111 22.5327 18.6586L19.3427 21.8386C18.7452 22.4348 18.1977 22.9811 17.7015 23.4086C17.4052 23.6661 17.0802 23.9211 16.7215 24.1411Z" fill="black"/>
<path fill-rule="evenodd" clip-rule="evenodd" d="M18.0591 20.4713L25.3679 13.1838C26.4204 12.135 26.9466 11.61 27.2229 10.9438C27.5004 10.275 27.5004 9.53375 27.5004 8.05V7.34125C27.5004 5.05875 27.5004 3.9175 26.7891 3.20875C26.0779 2.5 24.9341 2.5 22.6453 2.5H21.9328C20.4454 2.5 19.7016 2.5 19.0329 2.77625C18.3629 3.0525 17.8366 3.5775 16.7829 4.62625L9.47535 11.9137C8.24535 13.1388 7.48285 13.9 7.18785 14.6337C7.09586 14.8566 7.04831 15.0952 7.04785 15.3363C7.04785 16.3387 7.8566 17.1463 9.47535 18.76L9.69285 18.9762L12.2404 16.39C12.3268 16.3023 12.4296 16.2324 12.5431 16.1844C12.6565 16.1364 12.7783 16.1113 12.9014 16.1103C13.0246 16.1094 13.1467 16.1327 13.2608 16.179C13.375 16.2253 13.4789 16.2936 13.5666 16.38C13.6543 16.4664 13.7242 16.5693 13.7722 16.6827C13.8202 16.7961 13.8453 16.9179 13.8463 17.0411C13.8472 17.1642 13.8239 17.2863 13.7776 17.4005C13.7313 17.5146 13.663 17.6185 13.5766 17.7063L11.0204 20.3L11.1916 20.4713C12.8104 22.0838 13.6204 22.8913 14.6254 22.8913C14.8479 22.8913 15.0604 22.8525 15.2741 22.7738C16.0279 22.4963 16.7979 21.7288 18.0591 20.4713ZM21.4929 11.9137C21.0369 12.368 20.4196 12.6231 19.776 12.6231C19.1324 12.6231 18.515 12.368 18.0591 11.9137C17.8338 11.6894 17.655 11.4227 17.533 11.129C17.411 10.8354 17.3482 10.5205 17.3482 10.2025C17.3482 9.8845 17.411 9.56964 17.533 9.27597C17.655 8.98231 17.8338 8.71563 18.0591 8.49125C18.515 8.037 19.1324 7.78194 19.776 7.78194C20.4196 7.78194 21.0369 8.037 21.4929 8.49125C21.7182 8.71563 21.897 8.98231 22.019 9.27597C22.141 9.56964 22.2038 9.8845 22.2038 10.2025C22.2038 10.5205 22.141 10.8354 22.019 11.129C21.897 11.4227 21.7182 11.6894 21.4929 11.9137Z" fill="black"/>
</svg>
